# Blender 3.4.1
# www.blender.org
mtllib grassTerrain.mtl
o Torus
v 2.529655 -0.123235 0.000000
v 2.276689 0.191695 0.000000
v 1.378973 0.217973 0.000000
v 1.181977 -0.123235 0.000000
v 1.378973 -0.464442 0.000000
v 2.276689 -0.438165 0.000000
v 2.508013 -0.123235 -0.330186
v 2.257212 0.191695 -0.297167
v 1.367176 0.217973 -0.179992
v 1.171865 -0.123235 -0.154279
v 1.367176 -0.464442 -0.179992
v 2.257212 -0.438165 -0.297167
v 2.443459 -0.123235 -0.654723
v 2.199113 0.191695 -0.589250
v 1.331986 0.217973 -0.356904
v 1.141702 -0.123235 -0.305918
v 1.331986 -0.464442 -0.356904
v 2.199113 -0.438165 -0.589250
v 2.337096 -0.123235 -0.968057
v 2.103386 0.191695 -0.871251
v 1.274005 0.217973 -0.527710
v 1.092004 -0.123235 -0.452323
v 1.274005 -0.464442 -0.527710
v 2.103386 -0.438165 -0.871251
v 2.190745 -0.123235 -1.264828
v 1.971671 0.191695 -1.138345
v 1.194226 0.217973 -0.689487
v 1.023622 -0.123235 -0.590989
v 1.194226 -0.464442 -0.689487
v 1.971671 -0.438165 -1.138345
v 2.006910 -0.123235 -1.539956
v 1.806219 0.191695 -1.385960
v 1.094013 0.217973 -0.839466
v 0.937726 -0.123235 -0.719542
v 1.094013 -0.464442 -0.839466
v 1.806219 -0.438165 -1.385960
v 1.788736 -0.123235 -1.788736
v 1.609862 0.191695 -1.609862
v 0.975081 0.217973 -0.975081
v 0.835784 -0.123235 -0.835784
v 0.975081 -0.464442 -0.975081
v 1.609862 -0.438165 -1.609862
v 1.539956 -0.123235 -2.006910
v 1.385961 0.191695 -1.806219
v 0.839466 0.217973 -1.094013
v 0.719542 -0.123235 -0.937725
v 0.839466 -0.464442 -1.094013
v 1.385961 -0.438165 -1.806219
v 1.264827 -0.123235 -2.190745
v 1.138345 0.191695 -1.971671
v 0.689487 0.217973 -1.194226
v 0.590989 -0.123235 -1.023622
v 0.689487 -0.464442 -1.194226
v 1.138345 -0.438165 -1.971671
v 0.968058 -0.123235 -2.337096
v 0.871252 0.191695 -2.103386
v 0.527711 0.217973 -1.274005
v 0.452323 -0.123235 -1.092004
v 0.527711 -0.464442 -1.274005
v 0.871252 -0.438165 -2.103386
v 0.654723 -0.123235 -2.443459
v 0.589251 0.191695 -2.199113
v 0.356905 0.217973 -1.331986
v 0.305918 -0.123235 -1.141702
v 0.356905 -0.464442 -1.331986
v 0.589251 -0.438165 -2.199113
v 0.330186 -0.123235 -2.508013
v 0.297167 0.191695 -2.257212
v 0.179992 0.217973 -1.367176
v 0.154279 -0.123235 -1.171865
v 0.179992 -0.464442 -1.367176
v 0.297167 -0.438165 -2.257212
v 0.000000 -0.123235 -2.529655
v 0.000000 0.191695 -2.276689
v 0.000000 0.217973 -1.378973
v 0.000000 -0.123235 -1.181977
v 0.000000 -0.464442 -1.378973
v 0.000000 -0.438165 -2.276689
v -0.330186 -0.123235 -2.508013
v -0.297168 0.191695 -2.257212
v -0.179992 0.217973 -1.367176
v -0.154279 -0.123235 -1.171865
v -0.179992 -0.464442 -1.367176
v -0.297168 -0.438165 -2.257212
v -0.654722 -0.123235 -2.443459
v -0.589250 0.191695 -2.199113
v -0.356904 0.217973 -1.331986
v -0.305918 -0.123235 -1.141702
v -0.356904 -0.464442 -1.331986
v -0.589250 -0.438165 -2.199113
v -0.968057 -0.123235 -2.337096
v -0.871251 0.191695 -2.103386
v -0.527710 0.217973 -1.274005
v -0.452323 -0.123235 -1.092004
v -0.527710 -0.464442 -1.274005
v -0.871251 -0.438165 -2.103386
v -1.264827 -0.123235 -2.190746
v -1.138344 0.191695 -1.971671
v -0.689486 0.217973 -1.194226
v -0.590988 -0.123235 -1.023622
v -0.689486 -0.464442 -1.194226
v -1.138344 -0.438165 -1.971671
v -1.539956 -0.123235 -2.006910
v -1.385961 0.191695 -1.806219
v -0.839466 0.217973 -1.094013
v -0.719542 -0.123235 -0.937725
v -0.839466 -0.464442 -1.094013
v -1.385961 -0.438165 -1.806219
v -1.788736 -0.123235 -1.788736
v -1.609863 0.191695 -1.609862
v -0.975082 0.217973 -0.975081
v -0.835784 -0.123235 -0.835784
v -0.975082 -0.464442 -0.975081
v -1.609863 -0.438165 -1.609862
v -2.006910 -0.123235 -1.539956
v -1.806219 0.191695 -1.385961
v -1.094013 0.217973 -0.839466
v -0.937725 -0.123235 -0.719542
v -1.094013 -0.464442 -0.839466
v -1.806219 -0.438165 -1.385961
v -2.190745 -0.123235 -1.264828
v -1.971670 0.191695 -1.138345
v -1.194226 0.217973 -0.689487
v -1.023622 -0.123235 -0.590989
v -1.194226 -0.464442 -0.689487
v -1.971670 -0.438165 -1.138345
v -2.337096 -0.123235 -0.968057
v -2.103386 0.191695 -0.871251
v -1.274005 0.217973 -0.527710
v -1.092004 -0.123235 -0.452323
v -1.274005 -0.464442 -0.527710
v -2.103386 -0.438165 -0.871251
v -2.443459 -0.123235 -0.654722
v -2.199113 0.191695 -0.589250
v -1.331986 0.217973 -0.356904
v -1.141702 -0.123235 -0.305918
v -1.331986 -0.464442 -0.356904
v -2.199113 -0.438165 -0.589250
v -2.508013 -0.123235 -0.330187
v -2.257212 0.191695 -0.297168
v -1.367176 0.217973 -0.179992
v -1.171865 -0.123235 -0.154279
v -1.367176 -0.464442 -0.179992
v -2.257212 -0.438165 -0.297168
v -2.529655 -0.123235 -0.000000
v -2.276689 0.191695 -0.000000
v -1.378973 0.217973 -0.000000
v -1.181977 -0.123235 -0.000000
v -1.378973 -0.464442 -0.000000
v -2.276689 -0.438165 -0.000000
v -2.508013 -0.123235 0.330187
v -2.257212 0.191695 0.297168
v -1.367176 0.217973 0.179992
v -1.171865 -0.123235 0.154279
v -1.367176 -0.464442 0.179992
v -2.257212 -0.438165 0.297168
v -2.443459 -0.123235 0.654722
v -2.199113 0.191695 0.589250
v -1.331986 0.217973 0.356904
v -1.141702 -0.123235 0.305918
v -1.331986 -0.464442 0.356904
v -2.199113 -0.438165 0.589250
v -2.337097 -0.123235 0.968056
v -2.103387 0.191695 0.871250
v -1.274005 0.217973 0.527710
v -1.092005 -0.123235 0.452323
v -1.274005 -0.464442 0.527710
v -2.103387 -0.438165 0.871250
v -2.190746 -0.123235 1.264827
v -1.971671 0.191695 1.138344
v -1.194226 0.217973 0.689486
v -1.023622 -0.123235 0.590988
v -1.194226 -0.464442 0.689486
v -1.971671 -0.438165 1.138344
v -2.006910 -0.123235 1.539956
v -1.806219 0.191695 1.385961
v -1.094013 0.217973 0.839466
v -0.937725 -0.123235 0.719542
v -1.094013 -0.464442 0.839466
v -1.806219 -0.438165 1.385961
v -1.788736 -0.123235 1.788736
v -1.609863 0.191695 1.609862
v -0.975082 0.217973 0.975081
v -0.835784 -0.123235 0.835784
v -0.975082 -0.464442 0.975081
v -1.609863 -0.438165 1.609862
v -1.539957 -0.123235 2.006909
v -1.385961 0.191695 1.806218
v -0.839466 0.217973 1.094013
v -0.719543 -0.123235 0.937725
v -0.839466 -0.464442 1.094013
v -1.385961 -0.438165 1.806218
v -1.264827 -0.123235 2.190746
v -1.138344 0.191695 1.971671
v -0.689486 0.217973 1.194226
v -0.590988 -0.123235 1.023622
v -0.689486 -0.464442 1.194226
v -1.138344 -0.438165 1.971671
v -0.968057 -0.123235 2.337096
v -0.871251 0.191695 2.103386
v -0.527710 0.217973 1.274005
v -0.452323 -0.123235 1.092004
v -0.527710 -0.464442 1.274005
v -0.871251 -0.438165 2.103386
v -0.654724 -0.123235 2.443459
v -0.589251 0.191695 2.199113
v -0.356905 0.217973 1.331986
v -0.305919 -0.123235 1.141702
v -0.356905 -0.464442 1.331986
v -0.589251 -0.438165 2.199113
v -0.330188 -0.123235 2.508013
v -0.297169 0.191695 2.257212
v -0.179993 0.217973 1.367176
v -0.154280 -0.123235 1.171865
v -0.179993 -0.464442 1.367176
v -0.297169 -0.438165 2.257212
v 0.000000 -0.123235 2.529655
v 0.000000 0.191695 2.276689
v 0.000000 0.217973 1.378973
v 0.000000 -0.123235 1.181977
v 0.000000 -0.464442 1.378973
v 0.000000 -0.438165 2.276689
v 0.330186 -0.123235 2.508013
v 0.297167 0.191695 2.257212
v 0.179992 0.217973 1.367176
v 0.154279 -0.123235 1.171865
v 0.179992 -0.464442 1.367176
v 0.297167 -0.438165 2.257212
v 0.654722 -0.123235 2.443459
v 0.589250 0.191695 2.199113
v 0.356904 0.217973 1.331986
v 0.305918 -0.123235 1.141702
v 0.356904 -0.464442 1.331986
v 0.589250 -0.438165 2.199113
v 0.968058 -0.123235 2.337096
v 0.871252 0.191695 2.103386
v 0.527711 0.217973 1.274005
v 0.452323 -0.123235 1.092004
v 0.527711 -0.464442 1.274005
v 0.871252 -0.438165 2.103386
v 1.264827 -0.123235 2.190745
v 1.138345 0.191695 1.971671
v 0.689487 0.217973 1.194226
v 0.590989 -0.123235 1.023622
v 0.689487 -0.464442 1.194226
v 1.138345 -0.438165 1.971671
v 1.539956 -0.123235 2.006910
v 1.385960 0.191695 1.806219
v 0.839465 0.217973 1.094013
v 0.719542 -0.123235 0.937726
v 0.839465 -0.464442 1.094013
v 1.385960 -0.438165 1.806219
v 1.788735 -0.123235 1.788737
v 1.609862 0.191695 1.609863
v 0.975081 0.217973 0.975082
v 0.835784 -0.123235 0.835785
v 0.975081 -0.464442 0.975082
v 1.609862 -0.438165 1.609863
v 2.006910 -0.123235 1.539956
v 1.806219 0.191695 1.385960
v 1.094013 0.217973 0.839466
v 0.937726 -0.123235 0.719542
v 1.094013 -0.464442 0.839466
v 1.806219 -0.438165 1.385960
v 2.190745 -0.123235 1.264828
v 1.971671 0.191695 1.138345
v 1.194226 0.217973 0.689487
v 1.023622 -0.123235 0.590989
v 1.194226 -0.464442 0.689487
v 1.971671 -0.438165 1.138345
v 2.337096 -0.123235 0.968058
v 2.103386 0.191695 0.871252
v 1.274005 0.217973 0.527711
v 1.092004 -0.123235 0.452324
v 1.274005 -0.464442 0.527711
v 2.103386 -0.438165 0.871252
v 2.443459 -0.123235 0.654722
v 2.199113 0.191695 0.589250
v 1.331986 0.217973 0.356904
v 1.141702 -0.123235 0.305918
v 1.331986 -0.464442 0.356904
v 2.199113 -0.438165 0.589250
v 2.508013 -0.123235 0.330186
v 2.257212 0.191695 0.297168
v 1.367176 0.217973 0.179992
v 1.171865 -0.123235 0.154279
v 1.367176 -0.464442 0.179992
v 2.257212 -0.438165 0.297168
vn 0.7786 0.6254 -0.0510
vn 0.0293 0.9996 -0.0019
vn -0.8646 0.4992 0.0567
vn -0.8646 -0.4992 0.0567
vn 0.0293 -0.9996 -0.0019
vn 0.7786 -0.6254 -0.0510
vn 0.7653 0.6254 -0.1522
vn 0.0288 0.9996 -0.0057
vn -0.8498 0.4992 0.1690
vn -0.8498 -0.4992 0.1690
vn 0.0288 -0.9996 -0.0057
vn 0.7653 -0.6254 -0.1522
vn 0.7389 0.6254 -0.2508
vn 0.0278 0.9996 -0.0094
vn -0.8205 0.4992 0.2785
vn -0.8205 -0.4992 0.2785
vn 0.0278 -0.9996 -0.0094
vn 0.7389 -0.6254 -0.2508
vn 0.6998 0.6254 -0.3451
vn 0.0263 0.9996 -0.0130
vn -0.7771 0.4992 0.3832
vn -0.7771 -0.4992 0.3832
vn 0.0263 -0.9996 -0.0130
vn 0.6998 -0.6254 -0.3451
vn 0.6488 0.6254 -0.4335
vn 0.0244 0.9996 -0.0163
vn -0.7205 0.4992 0.4814
vn -0.7205 -0.4992 0.4814
vn 0.0244 -0.9996 -0.0163
vn 0.6488 -0.6254 -0.4335
vn 0.5867 0.6254 -0.5145
vn 0.0220 0.9996 -0.0193
vn -0.6515 0.4992 0.5713
vn -0.6515 -0.4992 0.5713
vn 0.0220 -0.9996 -0.0193
vn 0.5867 -0.6254 -0.5145
vn 0.5145 0.6254 -0.5867
vn 0.0193 0.9996 -0.0220
vn -0.5713 0.4992 0.6515
vn -0.5713 -0.4992 0.6515
vn 0.0193 -0.9996 -0.0220
vn 0.5145 -0.6254 -0.5867
vn 0.4335 0.6254 -0.6488
vn 0.0163 0.9996 -0.0244
vn -0.4814 0.4992 0.7205
vn -0.4814 -0.4992 0.7205
vn 0.0163 -0.9996 -0.0244
vn 0.4335 -0.6254 -0.6488
vn 0.3451 0.6254 -0.6998
vn 0.0130 0.9996 -0.0263
vn -0.3832 0.4992 0.7771
vn -0.3832 -0.4992 0.7771
vn 0.0130 -0.9996 -0.0263
vn 0.3451 -0.6254 -0.6998
vn 0.2508 0.6254 -0.7389
vn 0.0094 0.9996 -0.0278
vn -0.2785 0.4992 0.8205
vn -0.2785 -0.4992 0.8205
vn 0.0094 -0.9996 -0.0278
vn 0.2508 -0.6254 -0.7389
vn 0.1522 0.6254 -0.7653
vn 0.0057 0.9996 -0.0288
vn -0.1690 0.4992 0.8498
vn -0.1690 -0.4992 0.8498
vn 0.0057 -0.9996 -0.0288
vn 0.1522 -0.6254 -0.7653
vn 0.0510 0.6254 -0.7786
vn 0.0019 0.9996 -0.0293
vn -0.0567 0.4992 0.8646
vn -0.0567 -0.4992 0.8646
vn 0.0019 -0.9996 -0.0293
vn 0.0510 -0.6254 -0.7786
vn -0.0510 0.6254 -0.7786
vn -0.0019 0.9996 -0.0293
vn 0.0567 0.4992 0.8646
vn 0.0567 -0.4992 0.8646
vn -0.0019 -0.9996 -0.0293
vn -0.0510 -0.6254 -0.7786
vn -0.1522 0.6254 -0.7653
vn -0.0057 0.9996 -0.0288
vn 0.1690 0.4992 0.8498
vn 0.1690 -0.4992 0.8498
vn -0.0057 -0.9996 -0.0288
vn -0.1522 -0.6254 -0.7653
vn -0.2508 0.6254 -0.7389
vn -0.0094 0.9996 -0.0278
vn 0.2785 0.4992 0.8205
vn 0.2785 -0.4992 0.8205
vn -0.0094 -0.9996 -0.0278
vn -0.2508 -0.6254 -0.7389
vn -0.3451 0.6254 -0.6998
vn -0.0130 0.9996 -0.0263
vn 0.3832 0.4992 0.7771
vn 0.3832 -0.4992 0.7771
vn -0.0130 -0.9996 -0.0263
vn -0.3451 -0.6254 -0.6998
vn -0.4335 0.6254 -0.6488
vn -0.0163 0.9996 -0.0244
vn 0.4814 0.4992 0.7205
vn 0.4814 -0.4992 0.7205
vn -0.0163 -0.9996 -0.0244
vn -0.4335 -0.6254 -0.6488
vn -0.5145 0.6254 -0.5867
vn -0.0193 0.9996 -0.0220
vn 0.5713 0.4992 0.6515
vn 0.5713 -0.4992 0.6515
vn -0.0193 -0.9996 -0.0220
vn -0.5145 -0.6254 -0.5867
vn -0.5867 0.6254 -0.5145
vn -0.0220 0.9996 -0.0193
vn 0.6515 0.4992 0.5713
vn 0.6515 -0.4992 0.5713
vn -0.0220 -0.9996 -0.0193
vn -0.5867 -0.6254 -0.5145
vn -0.6488 0.6254 -0.4335
vn -0.0244 0.9996 -0.0163
vn 0.7205 0.4992 0.4814
vn 0.7205 -0.4992 0.4814
vn -0.0244 -0.9996 -0.0163
vn -0.6488 -0.6254 -0.4335
vn -0.6998 0.6254 -0.3451
vn -0.0263 0.9996 -0.0130
vn 0.7771 0.4992 0.3832
vn 0.7771 -0.4992 0.3832
vn -0.0263 -0.9996 -0.0130
vn -0.6998 -0.6254 -0.3451
vn -0.7389 0.6254 -0.2508
vn -0.0278 0.9996 -0.0094
vn 0.8205 0.4992 0.2785
vn 0.8205 -0.4992 0.2785
vn -0.0278 -0.9996 -0.0094
vn -0.7389 -0.6254 -0.2508
vn -0.7653 0.6254 -0.1522
vn -0.0288 0.9996 -0.0057
vn 0.8498 0.4992 0.1690
vn 0.8498 -0.4992 0.1690
vn -0.0288 -0.9996 -0.0057
vn -0.7653 -0.6254 -0.1522
vn -0.7786 0.6254 -0.0510
vn -0.0293 0.9996 -0.0019
vn 0.8646 0.4992 0.0567
vn 0.8646 -0.4992 0.0567
vn -0.0293 -0.9996 -0.0019
vn -0.7786 -0.6254 -0.0510
vn -0.7786 0.6254 0.0510
vn -0.0293 0.9996 0.0019
vn 0.8646 0.4992 -0.0567
vn 0.8646 -0.4992 -0.0567
vn -0.0293 -0.9996 0.0019
vn -0.7786 -0.6254 0.0510
vn -0.7653 0.6254 0.1522
vn -0.0288 0.9996 0.0057
vn 0.8498 0.4992 -0.1690
vn 0.8498 -0.4992 -0.1690
vn -0.0288 -0.9996 0.0057
vn -0.7653 -0.6254 0.1522
vn -0.7389 0.6254 0.2508
vn -0.0278 0.9996 0.0094
vn 0.8205 0.4992 -0.2785
vn 0.8205 -0.4992 -0.2785
vn -0.0278 -0.9996 0.0094
vn -0.7389 -0.6254 0.2508
vn -0.6998 0.6254 0.3451
vn -0.0263 0.9996 0.0130
vn 0.7771 0.4992 -0.3832
vn 0.7771 -0.4992 -0.3832
vn -0.0263 -0.9996 0.0130
vn -0.6998 -0.6254 0.3451
vn -0.6488 0.6254 0.4335
vn -0.0244 0.9996 0.0163
vn 0.7205 0.4992 -0.4814
vn 0.7205 -0.4992 -0.4814
vn -0.0244 -0.9996 0.0163
vn -0.6488 -0.6254 0.4335
vn -0.5867 0.6254 0.5145
vn -0.0220 0.9996 0.0193
vn 0.6515 0.4992 -0.5713
vn 0.6515 -0.4992 -0.5713
vn -0.0220 -0.9996 0.0193
vn -0.5867 -0.6254 0.5145
vn -0.5145 0.6254 0.5867
vn -0.0193 0.9996 0.0220
vn 0.5713 0.4992 -0.6515
vn 0.5713 -0.4992 -0.6515
vn -0.0193 -0.9996 0.0220
vn -0.5145 -0.6254 0.5867
vn -0.4335 0.6254 0.6488
vn -0.0163 0.9996 0.0244
vn 0.4814 0.4992 -0.7205
vn 0.4814 -0.4992 -0.7205
vn -0.0163 -0.9996 0.0244
vn -0.4335 -0.6254 0.6488
vn -0.3451 0.6254 0.6998
vn -0.0130 0.9996 0.0263
vn 0.3832 0.4992 -0.7771
vn 0.3832 -0.4992 -0.7771
vn -0.0130 -0.9996 0.0263
vn -0.3451 -0.6254 0.6998
vn -0.2508 0.6254 0.7389
vn -0.0094 0.9996 0.0278
vn 0.2785 0.4992 -0.8205
vn 0.2785 -0.4992 -0.8205
vn -0.0094 -0.9996 0.0278
vn -0.2508 -0.6254 0.7389
vn -0.1522 0.6254 0.7653
vn -0.0057 0.9996 0.0288
vn 0.1690 0.4992 -0.8498
vn 0.1690 -0.4992 -0.8498
vn -0.0057 -0.9996 0.0288
vn -0.1522 -0.6254 0.7653
vn -0.0510 0.6254 0.7786
vn -0.0019 0.9996 0.0293
vn 0.0567 0.4992 -0.8646
vn 0.0567 -0.4992 -0.8646
vn -0.0019 -0.9996 0.0293
vn -0.0510 -0.6254 0.7786
vn 0.0510 0.6254 0.7786
vn 0.0019 0.9996 0.0293
vn -0.0567 0.4992 -0.8646
vn -0.0567 -0.4992 -0.8646
vn 0.0019 -0.9996 0.0293
vn 0.0510 -0.6254 0.7786
vn 0.1522 0.6254 0.7653
vn 0.0057 0.9996 0.0288
vn -0.1690 0.4992 -0.8498
vn -0.1690 -0.4992 -0.8498
vn 0.0057 -0.9996 0.0288
vn 0.1522 -0.6254 0.7653
vn 0.2508 0.6254 0.7389
vn 0.0094 0.9996 0.0278
vn -0.2785 0.4992 -0.8205
vn -0.2785 -0.4992 -0.8205
vn 0.0094 -0.9996 0.0278
vn 0.2508 -0.6254 0.7389
vn 0.3451 0.6254 0.6998
vn 0.0130 0.9996 0.0263
vn -0.3832 0.4992 -0.7771
vn -0.3832 -0.4992 -0.7771
vn 0.0130 -0.9996 0.0263
vn 0.3451 -0.6254 0.6998
vn 0.4335 0.6254 0.6488
vn 0.0163 0.9996 0.0244
vn -0.4814 0.4992 -0.7205
vn -0.4814 -0.4992 -0.7205
vn 0.0163 -0.9996 0.0244
vn 0.4335 -0.6254 0.6488
vn 0.5145 0.6254 0.5867
vn 0.0193 0.9996 0.0220
vn -0.5713 0.4992 -0.6515
vn -0.5713 -0.4992 -0.6515
vn 0.0193 -0.9996 0.0220
vn 0.5145 -0.6254 0.5867
vn 0.5867 0.6254 0.5145
vn 0.0220 0.9996 0.0193
vn -0.6515 0.4992 -0.5713
vn -0.6515 -0.4992 -0.5713
vn 0.0220 -0.9996 0.0193
vn 0.5867 -0.6254 0.5145
vn 0.6488 0.6254 0.4335
vn 0.0244 0.9996 0.0163
vn -0.7205 0.4992 -0.4814
vn -0.7205 -0.4992 -0.4814
vn 0.0244 -0.9996 0.0163
vn 0.6488 -0.6254 0.4335
vn 0.6998 0.6254 0.3451
vn 0.0263 0.9996 0.0130
vn -0.7771 0.4992 -0.3832
vn -0.7771 -0.4992 -0.3832
vn 0.0263 -0.9996 0.0130
vn 0.6998 -0.6254 0.3451
vn 0.7389 0.6254 0.2508
vn 0.0278 0.9996 0.0094
vn -0.8205 0.4992 -0.2785
vn -0.8205 -0.4992 -0.2785
vn 0.0278 -0.9996 0.0094
vn 0.7389 -0.6254 0.2508
vn 0.7653 0.6254 0.1522
vn 0.0288 0.9996 0.0057
vn -0.8498 0.4992 -0.1690
vn -0.8498 -0.4992 -0.1690
vn 0.0288 -0.9996 0.0057
vn 0.7653 -0.6254 0.1522
vn 0.7786 0.6254 0.0510
vn 0.0293 0.9996 0.0019
vn -0.8646 0.4992 -0.0567
vn -0.8646 -0.4992 -0.0567
vn 0.0293 -0.9996 0.0019
vn 0.7786 -0.6254 0.0510
vt 0.500000 0.500000
vt 0.500000 0.666667
vt 0.500000 0.833333
vt 0.500000 1.000000
vt 0.500000 -0.000000
vt 0.500000 0.166667
vt 0.500000 0.333333
vt 0.520833 0.500000
vt 0.520833 0.666667
vt 0.520833 0.833333
vt 0.520833 1.000000
vt 0.520833 -0.000000
vt 0.520833 0.166667
vt 0.520833 0.333333
vt 0.541667 0.500000
vt 0.541667 0.666667
vt 0.541667 0.833333
vt 0.541667 1.000000
vt 0.541667 -0.000000
vt 0.541667 0.166667
vt 0.541667 0.333333
vt 0.562500 0.500000
vt 0.562500 0.666667
vt 0.562500 0.833333
vt 0.562500 1.000000
vt 0.562500 -0.000000
vt 0.562500 0.166667
vt 0.562500 0.333333
vt 0.583333 0.500000
vt 0.583333 0.666667
vt 0.583333 0.833333
vt 0.583333 1.000000
vt 0.583333 -0.000000
vt 0.583333 0.166667
vt 0.583333 0.333333
vt 0.604167 0.500000
vt 0.604167 0.666667
vt 0.604167 0.833333
vt 0.604167 1.000000
vt 0.604167 -0.000000
vt 0.604167 0.166667
vt 0.604167 0.333333
vt 0.625000 0.500000
vt 0.625000 0.666667
vt 0.625000 0.833333
vt 0.625000 1.000000
vt 0.625000 -0.000000
vt 0.625000 0.166667
vt 0.625000 0.333333
vt 0.645833 0.500000
vt 0.645833 0.666667
vt 0.645833 0.833333
vt 0.645833 1.000000
vt 0.645833 -0.000000
vt 0.645833 0.166667
vt 0.645833 0.333333
vt 0.666667 0.500000
vt 0.666667 0.666667
vt 0.666667 0.833333
vt 0.666667 1.000000
vt 0.666667 -0.000000
vt 0.666667 0.166667
vt 0.666667 0.333333
vt 0.687500 0.500000
vt 0.687500 0.666667
vt 0.687500 0.833333
vt 0.687500 1.000000
vt 0.687500 -0.000000
vt 0.687500 0.166667
vt 0.687500 0.333333
vt 0.708333 0.500000
vt 0.708333 0.666667
vt 0.708333 0.833333
vt 0.708333 1.000000
vt 0.708333 -0.000000
vt 0.708333 0.166667
vt 0.708333 0.333333
vt 0.729167 0.500000
vt 0.729167 0.666667
vt 0.729167 0.833333
vt 0.729167 1.000000
vt 0.729167 -0.000000
vt 0.729167 0.166667
vt 0.729167 0.333333
vt 0.750000 0.500000
vt 0.750000 0.666667
vt 0.750000 0.833333
vt 0.750000 1.000000
vt 0.750000 -0.000000
vt 0.750000 0.166667
vt 0.750000 0.333333
vt 0.770833 0.500000
vt 0.770833 0.666667
vt 0.770833 0.833333
vt 0.770833 1.000000
vt 0.770833 -0.000000
vt 0.770833 0.166667
vt 0.770833 0.333333
vt 0.791667 0.500000
vt 0.791667 0.666667
vt 0.791667 0.833333
vt 0.791667 1.000000
vt 0.791667 -0.000000
vt 0.791667 0.166667
vt 0.791667 0.333333
vt 0.812500 0.500000
vt 0.812500 0.666667
vt 0.812500 0.833333
vt 0.812500 1.000000
vt 0.812500 -0.000000
vt 0.812500 0.166667
vt 0.812500 0.333333
vt 0.833333 0.500000
vt 0.833333 0.666667
vt 0.833333 0.833333
vt 0.833333 1.000000
vt 0.833333 -0.000000
vt 0.833333 0.166667
vt 0.833333 0.333333
vt 0.854167 0.500000
vt 0.854167 0.666667
vt 0.854167 0.833333
vt 0.854167 1.000000
vt 0.854167 -0.000000
vt 0.854167 0.166667
vt 0.854167 0.333333
vt 0.875000 0.500000
vt 0.875000 0.666667
vt 0.875000 0.833333
vt 0.875000 1.000000
vt 0.875000 -0.000000
vt 0.875000 0.166667
vt 0.875000 0.333333
vt 0.895833 0.500000
vt 0.895833 0.666667
vt 0.895833 0.833333
vt 0.895833 1.000000
vt 0.895833 -0.000000
vt 0.895833 0.166667
vt 0.895833 0.333333
vt 0.916667 0.500000
vt 0.916667 0.666667
vt 0.916667 0.833333
vt 0.916667 1.000000
vt 0.916667 -0.000000
vt 0.916667 0.166667
vt 0.916667 0.333333
vt 0.937500 0.500000
vt 0.937500 0.666667
vt 0.937500 0.833333
vt 0.937500 1.000000
vt 0.937500 -0.000000
vt 0.937500 0.166667
vt 0.937500 0.333333
vt 0.958333 0.500000
vt 0.958333 0.666667
vt 0.958333 0.833333
vt 0.958333 1.000000
vt 0.958333 -0.000000
vt 0.958333 0.166667
vt 0.958333 0.333333
vt 0.979167 0.500000
vt 0.979167 0.666667
vt 0.979167 0.833333
vt 0.979167 1.000000
vt 0.979167 -0.000000
vt 0.979167 0.166667
vt 0.979167 0.333333
vt 1.000000 0.500000
vt 0.000000 0.500000
vt 1.000000 0.666667
vt 0.000000 0.666667
vt 1.000000 0.833333
vt 0.000000 0.833333
vt 1.000000 1.000000
vt 1.000000 -0.000000
vt 0.000000 1.000000
vt 0.000000 -0.000000
vt 1.000000 0.166667
vt 0.000000 0.166667
vt 1.000000 0.333333
vt 0.000000 0.333333
vt 0.020833 0.500000
vt 0.020833 0.666667
vt 0.020833 0.833333
vt 0.020833 1.000000
vt 0.020833 -0.000000
vt 0.020833 0.166667
vt 0.020833 0.333333
vt 0.041667 0.500000
vt 0.041667 0.666667
vt 0.041667 0.833333
vt 0.041667 1.000000
vt 0.041667 -0.000000
vt 0.041667 0.166667
vt 0.041667 0.333333
vt 0.062500 0.500000
vt 0.062500 0.666667
vt 0.062500 0.833333
vt 0.062500 1.000000
vt 0.062500 -0.000000
vt 0.062500 0.166667
vt 0.062500 0.333333
vt 0.083333 0.500000
vt 0.083333 0.666667
vt 0.083333 0.833333
vt 0.083333 1.000000
vt 0.083333 -0.000000
vt 0.083333 0.166667
vt 0.083333 0.333333
vt 0.104167 0.500000
vt 0.104167 0.666667
vt 0.104167 0.833333
vt 0.104167 1.000000
vt 0.104167 -0.000000
vt 0.104167 0.166667
vt 0.104167 0.333333
vt 0.125000 0.500000
vt 0.125000 0.666667
vt 0.125000 0.833333
vt 0.125000 1.000000
vt 0.125000 -0.000000
vt 0.125000 0.166667
vt 0.125000 0.333333
vt 0.145833 0.500000
vt 0.145833 0.666667
vt 0.145833 0.833333
vt 0.145833 1.000000
vt 0.145833 -0.000000
vt 0.145833 0.166667
vt 0.145833 0.333333
vt 0.166667 0.500000
vt 0.166667 0.666667
vt 0.166667 0.833333
vt 0.166667 1.000000
vt 0.166667 -0.000000
vt 0.166667 0.166667
vt 0.166667 0.333333
vt 0.187500 0.500000
vt 0.187500 0.666667
vt 0.187500 0.833333
vt 0.187500 1.000000
vt 0.187500 -0.000000
vt 0.187500 0.166667
vt 0.187500 0.333333
vt 0.208333 0.500000
vt 0.208333 0.666667
vt 0.208333 0.833333
vt 0.208333 1.000000
vt 0.208333 -0.000000
vt 0.208333 0.166667
vt 0.208333 0.333333
vt 0.229167 0.500000
vt 0.229167 0.666667
vt 0.229167 0.833333
vt 0.229167 1.000000
vt 0.229167 -0.000000
vt 0.229167 0.166667
vt 0.229167 0.333333
vt 0.250000 0.500000
vt 0.250000 0.666667
vt 0.250000 0.833333
vt 0.250000 1.000000
vt 0.250000 -0.000000
vt 0.250000 0.166667
vt 0.250000 0.333333
vt 0.270833 0.500000
vt 0.270833 0.666667
vt 0.270833 0.833333
vt 0.270833 1.000000
vt 0.270833 -0.000000
vt 0.270833 0.166667
vt 0.270833 0.333333
vt 0.291667 0.500000
vt 0.291667 0.666667
vt 0.291667 0.833333
vt 0.291667 1.000000
vt 0.291667 -0.000000
vt 0.291667 0.166667
vt 0.291667 0.333333
vt 0.312500 0.500000
vt 0.312500 0.666667
vt 0.312500 0.833333
vt 0.312500 1.000000
vt 0.312500 -0.000000
vt 0.312500 0.166667
vt 0.312500 0.333333
vt 0.333333 0.500000
vt 0.333333 0.666667
vt 0.333333 0.833333
vt 0.333333 1.000000
vt 0.333333 -0.000000
vt 0.333333 0.166667
vt 0.333333 0.333333
vt 0.354167 0.500000
vt 0.354167 0.666667
vt 0.354167 0.833333
vt 0.354167 1.000000
vt 0.354167 -0.000000
vt 0.354167 0.166667
vt 0.354167 0.333333
vt 0.375000 0.500000
vt 0.375000 0.666667
vt 0.375000 0.833333
vt 0.375000 1.000000
vt 0.375000 -0.000000
vt 0.375000 0.166667
vt 0.375000 0.333333
vt 0.395833 0.500000
vt 0.395833 0.666667
vt 0.395833 0.833333
vt 0.395833 1.000000
vt 0.395833 -0.000000
vt 0.395833 0.166667
vt 0.395833 0.333333
vt 0.416667 0.500000
vt 0.416667 0.666667
vt 0.416667 0.833333
vt 0.416667 1.000000
vt 0.416667 -0.000000
vt 0.416667 0.166667
vt 0.416667 0.333333
vt 0.437500 0.500000
vt 0.437500 0.666667
vt 0.437500 0.833333
vt 0.437500 1.000000
vt 0.437500 -0.000000
vt 0.437500 0.166667
vt 0.437500 0.333333
vt 0.458333 0.500000
vt 0.458333 0.666667
vt 0.458333 0.833333
vt 0.458333 1.000000
vt 0.458333 -0.000000
vt 0.458333 0.166667
vt 0.458333 0.333333
vt 0.479167 0.500000
vt 0.479167 0.666667
vt 0.479167 0.833333
vt 0.479167 1.000000
vt 0.479167 -0.000000
vt 0.479167 0.166667
vt 0.479167 0.333333
s 0
f 1/1/1 7/8/1 8/9/1 2/2/1
f 2/2/2 8/9/2 9/10/2 3/3/2
f 3/3/3 9/10/3 10/11/3 4/4/3
f 4/5/4 10/12/4 11/13/4 5/6/4
f 5/6/5 11/13/5 12/14/5 6/7/5
f 6/7/6 12/14/6 7/8/6 1/1/6
f 7/8/7 13/15/7 14/16/7 8/9/7
f 8/9/8 14/16/8 15/17/8 9/10/8
f 9/10/9 15/17/9 16/18/9 10/11/9
f 10/12/10 16/19/10 17/20/10 11/13/10
f 11/13/11 17/20/11 18/21/11 12/14/11
f 12/14/12 18/21/12 13/15/12 7/8/12
f 13/15/13 19/22/13 20/23/13 14/16/13
f 14/16/14 20/23/14 21/24/14 15/17/14
f 15/17/15 21/24/15 22/25/15 16/18/15
f 16/19/16 22/26/16 23/27/16 17/20/16
f 17/20/17 23/27/17 24/28/17 18/21/17
f 18/21/18 24/28/18 19/22/18 13/15/18
f 19/22/19 25/29/19 26/30/19 20/23/19
f 20/23/20 26/30/20 27/31/20 21/24/20
f 21/24/21 27/31/21 28/32/21 22/25/21
f 22/26/22 28/33/22 29/34/22 23/27/22
f 23/27/23 29/34/23 30/35/23 24/28/23
f 24/28/24 30/35/24 25/29/24 19/22/24
f 25/29/25 31/36/25 32/37/25 26/30/25
f 26/30/26 32/37/26 33/38/26 27/31/26
f 27/31/27 33/38/27 34/39/27 28/32/27
f 28/33/28 34/40/28 35/41/28 29/34/28
f 29/34/29 35/41/29 36/42/29 30/35/29
f 30/35/30 36/42/30 31/36/30 25/29/30
f 31/36/31 37/43/31 38/44/31 32/37/31
f 32/37/32 38/44/32 39/45/32 33/38/32
f 33/38/33 39/45/33 40/46/33 34/39/33
f 34/40/34 40/47/34 41/48/34 35/41/34
f 35/41/35 41/48/35 42/49/35 36/42/35
f 36/42/36 42/49/36 37/43/36 31/36/36
f 37/43/37 43/50/37 44/51/37 38/44/37
f 38/44/38 44/51/38 45/52/38 39/45/38
f 39/45/39 45/52/39 46/53/39 40/46/39
f 40/47/40 46/54/40 47/55/40 41/48/40
f 41/48/41 47/55/41 48/56/41 42/49/41
f 42/49/42 48/56/42 43/50/42 37/43/42
f 43/50/43 49/57/43 50/58/43 44/51/43
f 44/51/44 50/58/44 51/59/44 45/52/44
f 45/52/45 51/59/45 52/60/45 46/53/45
f 46/54/46 52/61/46 53/62/46 47/55/46
f 47/55/47 53/62/47 54/63/47 48/56/47
f 48/56/48 54/63/48 49/57/48 43/50/48
f 49/57/49 55/64/49 56/65/49 50/58/49
f 50/58/50 56/65/50 57/66/50 51/59/50
f 51/59/51 57/66/51 58/67/51 52/60/51
f 52/61/52 58/68/52 59/69/52 53/62/52
f 53/62/53 59/69/53 60/70/53 54/63/53
f 54/63/54 60/70/54 55/64/54 49/57/54
f 55/64/55 61/71/55 62/72/55 56/65/55
f 56/65/56 62/72/56 63/73/56 57/66/56
f 57/66/57 63/73/57 64/74/57 58/67/57
f 58/68/58 64/75/58 65/76/58 59/69/58
f 59/69/59 65/76/59 66/77/59 60/70/59
f 60/70/60 66/77/60 61/71/60 55/64/60
f 61/71/61 67/78/61 68/79/61 62/72/61
f 62/72/62 68/79/62 69/80/62 63/73/62
f 63/73/63 69/80/63 70/81/63 64/74/63
f 64/75/64 70/82/64 71/83/64 65/76/64
f 65/76/65 71/83/65 72/84/65 66/77/65
f 66/77/66 72/84/66 67/78/66 61/71/66
f 67/78/67 73/85/67 74/86/67 68/79/67
f 68/79/68 74/86/68 75/87/68 69/80/68
f 69/80/69 75/87/69 76/88/69 70/81/69
f 70/82/70 76/89/70 77/90/70 71/83/70
f 71/83/71 77/90/71 78/91/71 72/84/71
f 72/84/72 78/91/72 73/85/72 67/78/72
f 73/85/73 79/92/73 80/93/73 74/86/73
f 74/86/74 80/93/74 81/94/74 75/87/74
f 75/87/75 81/94/75 82/95/75 76/88/75
f 76/89/76 82/96/76 83/97/76 77/90/76
f 77/90/77 83/97/77 84/98/77 78/91/77
f 78/91/78 84/98/78 79/92/78 73/85/78
f 79/92/79 85/99/79 86/100/79 80/93/79
f 80/93/80 86/100/80 87/101/80 81/94/80
f 81/94/81 87/101/81 88/102/81 82/95/81
f 82/96/82 88/103/82 89/104/82 83/97/82
f 83/97/83 89/104/83 90/105/83 84/98/83
f 84/98/84 90/105/84 85/99/84 79/92/84
f 85/99/85 91/106/85 92/107/85 86/100/85
f 86/100/86 92/107/86 93/108/86 87/101/86
f 87/101/87 93/108/87 94/109/87 88/102/87
f 88/103/88 94/110/88 95/111/88 89/104/88
f 89/104/89 95/111/89 96/112/89 90/105/89
f 90/105/90 96/112/90 91/106/90 85/99/90
f 91/106/91 97/113/91 98/114/91 92/107/91
f 92/107/92 98/114/92 99/115/92 93/108/92
f 93/108/93 99/115/93 100/116/93 94/109/93
f 94/110/94 100/117/94 101/118/94 95/111/94
f 95/111/95 101/118/95 102/119/95 96/112/95
f 96/112/96 102/119/96 97/113/96 91/106/96
f 97/113/97 103/120/97 104/121/97 98/114/97
f 98/114/98 104/121/98 105/122/98 99/115/98
f 99/115/99 105/122/99 106/123/99 100/116/99
f 100/117/100 106/124/100 107/125/100 101/118/100
f 101/118/101 107/125/101 108/126/101 102/119/101
f 102/119/102 108/126/102 103/120/102 97/113/102
f 103/120/103 109/127/103 110/128/103 104/121/103
f 104/121/104 110/128/104 111/129/104 105/122/104
f 105/122/105 111/129/105 112/130/105 106/123/105
f 106/124/106 112/131/106 113/132/106 107/125/106
f 107/125/107 113/132/107 114/133/107 108/126/107
f 108/126/108 114/133/108 109/127/108 103/120/108
f 109/127/109 115/134/109 116/135/109 110/128/109
f 110/128/110 116/135/110 117/136/110 111/129/110
f 111/129/111 117/136/111 118/137/111 112/130/111
f 112/131/112 118/138/112 119/139/112 113/132/112
f 113/132/113 119/139/113 120/140/113 114/133/113
f 114/133/114 120/140/114 115/134/114 109/127/114
f 115/134/115 121/141/115 122/142/115 116/135/115
f 116/135/116 122/142/116 123/143/116 117/136/116
f 117/136/117 123/143/117 124/144/117 118/137/117
f 118/138/118 124/145/118 125/146/118 119/139/118
f 119/139/119 125/146/119 126/147/119 120/140/119
f 120/140/120 126/147/120 121/141/120 115/134/120
f 121/141/121 127/148/121 128/149/121 122/142/121
f 122/142/122 128/149/122 129/150/122 123/143/122
f 123/143/123 129/150/123 130/151/123 124/144/123
f 124/145/124 130/152/124 131/153/124 125/146/124
f 125/146/125 131/153/125 132/154/125 126/147/125
f 126/147/126 132/154/126 127/148/126 121/141/126
f 127/148/127 133/155/127 134/156/127 128/149/127
f 128/149/128 134/156/128 135/157/128 129/150/128
f 129/150/129 135/157/129 136/158/129 130/151/129
f 130/152/130 136/159/130 137/160/130 131/153/130
f 131/153/131 137/160/131 138/161/131 132/154/131
f 132/154/132 138/161/132 133/155/132 127/148/132
f 133/155/133 139/162/133 140/163/133 134/156/133
f 134/156/134 140/163/134 141/164/134 135/157/134
f 135/157/135 141/164/135 142/165/135 136/158/135
f 136/159/136 142/166/136 143/167/136 137/160/136
f 137/160/137 143/167/137 144/168/137 138/161/137
f 138/161/138 144/168/138 139/162/138 133/155/138
f 139/162/139 145/169/139 146/171/139 140/163/139
f 140/163/140 146/171/140 147/173/140 141/164/140
f 141/164/141 147/173/141 148/175/141 142/165/141
f 142/166/142 148/176/142 149/179/142 143/167/142
f 143/167/143 149/179/143 150/181/143 144/168/143
f 144/168/144 150/181/144 145/169/144 139/162/144
f 145/170/145 151/183/145 152/184/145 146/172/145
f 146/172/146 152/184/146 153/185/146 147/174/146
f 147/174/147 153/185/147 154/186/147 148/177/147
f 148/178/148 154/187/148 155/188/148 149/180/148
f 149/180/149 155/188/149 156/189/149 150/182/149
f 150/182/150 156/189/150 151/183/150 145/170/150
f 151/183/151 157/190/151 158/191/151 152/184/151
f 152/184/152 158/191/152 159/192/152 153/185/152
f 153/185/153 159/192/153 160/193/153 154/186/153
f 154/187/154 160/194/154 161/195/154 155/188/154
f 155/188/155 161/195/155 162/196/155 156/189/155
f 156/189/156 162/196/156 157/190/156 151/183/156
f 157/190/157 163/197/157 164/198/157 158/191/157
f 158/191/158 164/198/158 165/199/158 159/192/158
f 159/192/159 165/199/159 166/200/159 160/193/159
f 160/194/160 166/201/160 167/202/160 161/195/160
f 161/195/161 167/202/161 168/203/161 162/196/161
f 162/196/162 168/203/162 163/197/162 157/190/162
f 163/197/163 169/204/163 170/205/163 164/198/163
f 164/198/164 170/205/164 171/206/164 165/199/164
f 165/199/165 171/206/165 172/207/165 166/200/165
f 166/201/166 172/208/166 173/209/166 167/202/166
f 167/202/167 173/209/167 174/210/167 168/203/167
f 168/203/168 174/210/168 169/204/168 163/197/168
f 169/204/169 175/211/169 176/212/169 170/205/169
f 170/205/170 176/212/170 177/213/170 171/206/170
f 171/206/171 177/213/171 178/214/171 172/207/171
f 172/208/172 178/215/172 179/216/172 173/209/172
f 173/209/173 179/216/173 180/217/173 174/210/173
f 174/210/174 180/217/174 175/211/174 169/204/174
f 175/211/175 181/218/175 182/219/175 176/212/175
f 176/212/176 182/219/176 183/220/176 177/213/176
f 177/213/177 183/220/177 184/221/177 178/214/177
f 178/215/178 184/222/178 185/223/178 179/216/178
f 179/216/179 185/223/179 186/224/179 180/217/179
f 180/217/180 186/224/180 181/218/180 175/211/180
f 181/218/181 187/225/181 188/226/181 182/219/181
f 182/219/182 188/226/182 189/227/182 183/220/182
f 183/220/183 189/227/183 190/228/183 184/221/183
f 184/222/184 190/229/184 191/230/184 185/223/184
f 185/223/185 191/230/185 192/231/185 186/224/185
f 186/224/186 192/231/186 187/225/186 181/218/186
f 187/225/187 193/232/187 194/233/187 188/226/187
f 188/226/188 194/233/188 195/234/188 189/227/188
f 189/227/189 195/234/189 196/235/189 190/228/189
f 190/229/190 196/236/190 197/237/190 191/230/190
f 191/230/191 197/237/191 198/238/191 192/231/191
f 192/231/192 198/238/192 193/232/192 187/225/192
f 193/232/193 199/239/193 200/240/193 194/233/193
f 194/233/194 200/240/194 201/241/194 195/234/194
f 195/234/195 201/241/195 202/242/195 196/235/195
f 196/236/196 202/243/196 203/244/196 197/237/196
f 197/237/197 203/244/197 204/245/197 198/238/197
f 198/238/198 204/245/198 199/239/198 193/232/198
f 199/239/199 205/246/199 206/247/199 200/240/199
f 200/240/200 206/247/200 207/248/200 201/241/200
f 201/241/201 207/248/201 208/249/201 202/242/201
f 202/243/202 208/250/202 209/251/202 203/244/202
f 203/244/203 209/251/203 210/252/203 204/245/203
f 204/245/204 210/252/204 205/246/204 199/239/204
f 205/246/205 211/253/205 212/254/205 206/247/205
f 206/247/206 212/254/206 213/255/206 207/248/206
f 207/248/207 213/255/207 214/256/207 208/249/207
f 208/250/208 214/257/208 215/258/208 209/251/208
f 209/251/209 215/258/209 216/259/209 210/252/209
f 210/252/210 216/259/210 211/253/210 205/246/210
f 211/253/211 217/260/211 218/261/211 212/254/211
f 212/254/212 218/261/212 219/262/212 213/255/212
f 213/255/213 219/262/213 220/263/213 214/256/213
f 214/257/214 220/264/214 221/265/214 215/258/214
f 215/258/215 221/265/215 222/266/215 216/259/215
f 216/259/216 222/266/216 217/260/216 211/253/216
f 217/260/217 223/267/217 224/268/217 218/261/217
f 218/261/218 224/268/218 225/269/218 219/262/218
f 219/262/219 225/269/219 226/270/219 220/263/219
f 220/264/220 226/271/220 227/272/220 221/265/220
f 221/265/221 227/272/221 228/273/221 222/266/221
f 222/266/222 228/273/222 223/267/222 217/260/222
f 223/267/223 229/274/223 230/275/223 224/268/223
f 224/268/224 230/275/224 231/276/224 225/269/224
f 225/269/225 231/276/225 232/277/225 226/270/225
f 226/271/226 232/278/226 233/279/226 227/272/226
f 227/272/227 233/279/227 234/280/227 228/273/227
f 228/273/228 234/280/228 229/274/228 223/267/228
f 229/274/229 235/281/229 236/282/229 230/275/229
f 230/275/230 236/282/230 237/283/230 231/276/230
f 231/276/231 237/283/231 238/284/231 232/277/231
f 232/278/232 238/285/232 239/286/232 233/279/232
f 233/279/233 239/286/233 240/287/233 234/280/233
f 234/280/234 240/287/234 235/281/234 229/274/234
f 235/281/235 241/288/235 242/289/235 236/282/235
f 236/282/236 242/289/236 243/290/236 237/283/236
f 237/283/237 243/290/237 244/291/237 238/284/237
f 238/285/238 244/292/238 245/293/238 239/286/238
f 239/286/239 245/293/239 246/294/239 240/287/239
f 240/287/240 246/294/240 241/288/240 235/281/240
f 241/288/241 247/295/241 248/296/241 242/289/241
f 242/289/242 248/296/242 249/297/242 243/290/242
f 243/290/243 249/297/243 250/298/243 244/291/243
f 244/292/244 250/299/244 251/300/244 245/293/244
f 245/293/245 251/300/245 252/301/245 246/294/245
f 246/294/246 252/301/246 247/295/246 241/288/246
f 247/295/247 253/302/247 254/303/247 248/296/247
f 248/296/248 254/303/248 255/304/248 249/297/248
f 249/297/249 255/304/249 256/305/249 250/298/249
f 250/299/250 256/306/250 257/307/250 251/300/250
f 251/300/251 257/307/251 258/308/251 252/301/251
f 252/301/252 258/308/252 253/302/252 247/295/252
f 253/302/253 259/309/253 260/310/253 254/303/253
f 254/303/254 260/310/254 261/311/254 255/304/254
f 255/304/255 261/311/255 262/312/255 256/305/255
f 256/306/256 262/313/256 263/314/256 257/307/256
f 257/307/257 263/314/257 264/315/257 258/308/257
f 258/308/258 264/315/258 259/309/258 253/302/258
f 259/309/259 265/316/259 266/317/259 260/310/259
f 260/310/260 266/317/260 267/318/260 261/311/260
f 261/311/261 267/318/261 268/319/261 262/312/261
f 262/313/262 268/320/262 269/321/262 263/314/262
f 263/314/263 269/321/263 270/322/263 264/315/263
f 264/315/264 270/322/264 265/316/264 259/309/264
f 265/316/265 271/323/265 272/324/265 266/317/265
f 266/317/266 272/324/266 273/325/266 267/318/266
f 267/318/267 273/325/267 274/326/267 268/319/267
f 268/320/268 274/327/268 275/328/268 269/321/268
f 269/321/269 275/328/269 276/329/269 270/322/269
f 270/322/270 276/329/270 271/323/270 265/316/270
f 271/323/271 277/330/271 278/331/271 272/324/271
f 272/324/272 278/331/272 279/332/272 273/325/272
f 273/325/273 279/332/273 280/333/273 274/326/273
f 274/327/274 280/334/274 281/335/274 275/328/274
f 275/328/275 281/335/275 282/336/275 276/329/275
f 276/329/276 282/336/276 277/330/276 271/323/276
f 277/330/277 283/337/277 284/338/277 278/331/277
f 278/331/278 284/338/278 285/339/278 279/332/278
f 279/332/279 285/339/279 286/340/279 280/333/279
f 280/334/280 286/341/280 287/342/280 281/335/280
f 281/335/281 287/342/281 288/343/281 282/336/281
f 282/336/282 288/343/282 283/337/282 277/330/282
f 283/337/283 1/1/283 2/2/283 284/338/283
f 284/338/284 2/2/284 3/3/284 285/339/284
f 285/339/285 3/3/285 4/4/285 286/340/285
f 286/341/286 4/5/286 5/6/286 287/342/286
f 287/342/287 5/6/287 6/7/287 288/343/287
f 288/343/288 6/7/288 1/1/288 283/337/288
